<?xml version="1.0" encoding="utf-8"?>
<!-- Generator: Adobe Illustrator 16.0.0, SVG Export Plug-In . SVG Version: 6.00 Build 0)  -->
<!DOCTYPE svg PUBLIC "-//W3C//DTD SVG 1.1//EN" "http://www.w3.org/Graphics/SVG/1.1/DTD/svg11.dtd">
<svg version="1.1" id="Layer_1" xmlns="http://www.w3.org/2000/svg" xmlns:xlink="http://www.w3.org/1999/xlink" x="0px" y="0px"
	 width="170.599px" height="91.5px" viewBox="0 0 170.599 91.5" enable-background="new 0 0 170.599 91.5" xml:space="preserve">
<g>
	<g>
		<path fill="#D13239" d="M20.32,28.495c0.735-0.709,0.304-1.645,0.075-2.324c-1.36-1.676-2.521-1.265-3.57-0.469
			c-0.418,0.648-1.068,1.523-0.474,2.403C17.602,29.137,18.91,29.096,20.32,28.495z"/>
		<g>
			<g>
				<path fill="#F5C400" d="M152.704,37.116l-0.224-0.018c-0.05-0.01-0.263-0.091-0.263-0.091l-0.067-0.055
					c-0.241-0.122-0.049-0.327-0.049-0.327l0.267-0.266c0.079-0.109,0.229-0.189,0.229-0.189c0.074-0.04,0.139-0.07,0.229-0.115
					c0.141-0.077,0.289-0.141,0.459-0.213c0.179-0.086,0.057-0.023,0.246-0.116c0.031-0.012,0.052-0.024,0.08-0.036
					c-0.014-0.028-0.028-0.062-0.039-0.089c-0.352-0.682-0.709-1.438-1.091-2.103c-0.064-0.113-0.13-0.229-0.195-0.344l-0.097,0.061
					l-0.716,0.449l-0.401,0.293L150.946,34l-0.228,0.005c-0.141,0.013-0.293-0.063-0.293-0.063c-0.143-0.013-0.2-0.206-0.2-0.206
					l-0.018-0.096l0.021-0.092l0.081-0.116l0.135-0.203l0.308-0.299c0.322-0.2,0.617-0.506,0.923-0.727
					c0.016-0.012,0.031-0.021,0.047-0.033c-0.537-0.925-1.133-1.828-1.906-2.554c-0.048,0.062-0.096,0.121-0.137,0.182
					c-0.307,0.451-0.769,0.816-1.064,1.276l-0.333,0.185c-0.177,0.1-0.272,0.01-0.272,0.01c-0.113-0.019-0.185-0.158-0.185-0.158
					l-0.055-0.096c-0.111-0.084-0.068-0.259-0.068-0.259l0.032-0.214l0.149-0.306c0.183-0.19,0.18-0.261,0.32-0.473l0.197-0.257
					c0.163-0.201,0.323-0.402,0.477-0.594c-0.565-0.313-1.432-0.66-1.907-0.715c-0.31-0.031-0.677,0.001-0.964,0.187
					c-0.115,0.297-0.207,0.607-0.279,0.908c-0.098,0.4-0.144,0.622-0.173,0.926c-0.011,0.036-0.043,0.21-0.085,0.323
					c-0.055,0.32-0.086,0.604-0.157,0.934c-0.054,0.251-0.12,0.521-0.175,0.739c-0.059,0.237-0.095,0.461-0.152,0.695
					c-0.132,0.534-0.234,1.062-0.291,1.616c-0.027,0.226-0.037,0.544-0.058,0.764c-0.021,0.234-0.084,0.518-0.079,0.789
					c0.019,0.497-0.11,0.926-0.076,1.405c0.025,0.446,0.13,1,0.498,1.313c0.182,0.15,0.419,0.311,0.627,0.417
					c0.287,0.15,0.657,0.202,0.977,0.312c0.262,0.092,0.569,0.147,0.891,0.137c0.406-0.014,0.876-0.258,1.26-0.37
					c0.982-0.282,1.982,0.152,2.902,0.308c0.18,0.028,0.355,0.069,0.536,0.113c0.274-0.094,0.55-0.205,0.688-0.342
					c0.361-0.345,0.964-0.991,1.041-1.448c0.068-0.44,0.061-0.911-0.023-1.363c-0.287,0.15-0.543,0.308-0.864,0.493
					C152.931,37.1,152.704,37.116,152.704,37.116z"/>
				<path fill="#717271" d="M160.743,27.091c-0.018-0.134-0.032-0.292-0.13-0.403c-0.071-0.073-0.378-0.262-0.454-0.281
					c-0.575-0.175-0.937,0.188-0.937,0.188l-0.211,0.154c-0.035,0.023-0.055,0.048-0.092,0.073
					c-0.071,0.055-0.135,0.078-0.216,0.132c-0.105,0.065-0.19,0.178-0.295,0.256c-0.262,0.209-0.619,0.461-0.857,0.694
					c-0.351,0.334-0.547,0.522-0.923,0.73c-0.158,0.083-0.262,0.205-0.374,0.298c-0.114,0.092-0.212,0.145-0.343,0.212
					c-0.372,0.194-0.73,0.393-1.073,0.651c-0.239,0.18-0.668,0.459-0.938,0.716c-0.137,0.122-0.252,0.244-0.376,0.325
					c-0.118,0.088-0.269,0.195-0.384,0.288c-0.138,0.106-0.264,0.165-0.387,0.281c-0.117,0.101-0.261,0.162-0.382,0.272
					c-0.188,0.184-0.424,0.333-0.65,0.491c-0.016,0.012-0.031,0.021-0.047,0.033c-0.306,0.221-0.601,0.526-0.923,0.727l-0.308,0.299
					l-0.135,0.203l-0.081,0.116l-0.021,0.092l0.018,0.096c0,0,0.058,0.193,0.2,0.206c0,0,0.152,0.076,0.293,0.063L150.946,34
					l0.126-0.042l0.401-0.293l0.716-0.449l0.097-0.061l0.935-0.571c0.576-0.324,0.92-0.677,1.428-0.952l0.108-0.065
					c0.094-0.047,0.282-0.126,0.374-0.173c0.535-0.269,0.769-0.404,1.212-0.718c0.378-0.261,0.815-0.558,1.222-0.81
					c0.226-0.144,0.444-0.229,0.641-0.394c0.024-0.032,0.058-0.057,0.089-0.08l1.427-0.872l0.68-0.557
					c0.069-0.048,0.136-0.101,0.191-0.143C160.815,27.624,160.782,27.389,160.743,27.091z"/>
				<path fill="#717271" d="M153.901,23.38c-0.079-0.077-0.201-0.186-0.308-0.21c-0.255-0.066-0.461,0.106-0.651,0.225
					c-0.161,0.09-0.38,0.195-0.486,0.34c-0.075,0.103-0.119,0.23-0.198,0.337c-0.065,0.089-0.131,0.183-0.197,0.278
					c-0.067,0.098-0.124,0.197-0.193,0.295c-0.081,0.114-0.109,0.205-0.207,0.313c-0.125,0.138-0.254,0.29-0.326,0.453
					c-0.057,0.125-0.165,0.24-0.256,0.349c-0.304,0.345-0.471,0.698-0.744,1.071c-0.117,0.149-0.276,0.321-0.35,0.482
					c-0.044,0.097-0.152,0.271-0.211,0.361c-0.089,0.149-0.179,0.271-0.309,0.402c-0.123,0.133-0.211,0.275-0.309,0.433
					c-0.1,0.158-0.156,0.241-0.251,0.365c-0.012,0.009-0.02,0.025-0.028,0.038c-0.153,0.191-0.313,0.393-0.477,0.594l-0.197,0.257
					c-0.141,0.212-0.138,0.282-0.32,0.473l-0.149,0.306l-0.032,0.214c0,0-0.043,0.175,0.068,0.259l0.055,0.096
					c0,0,0.071,0.14,0.185,0.158c0,0,0.096,0.09,0.272-0.01l0.333-0.185c0.296-0.46,0.758-0.825,1.064-1.276
					c0.041-0.061,0.089-0.12,0.137-0.182c0.253-0.321,0.543-0.627,0.748-0.975c0.108-0.188,0.249-0.384,0.386-0.56
					c0.308-0.401,0.611-0.782,0.953-1.148c0.324-0.35,0.634-0.719,0.879-1.103c0.197-0.293,0.518-0.499,0.721-0.775
					c0.143-0.186,0.287-0.369,0.342-0.581c0.078-0.261,0.189-0.509,0.16-0.791C153.998,23.579,153.979,23.459,153.901,23.38z"/>
				<path fill="#717271" d="M160.791,32.478c-0.063-0.166-0.208-0.253-0.407-0.241c-0.16,0.014-0.328,0.072-0.478,0.119
					c-0.152,0.049-0.309,0.115-0.461,0.195c-0.131,0.058-0.236,0.147-0.363,0.21c-0.283,0.14-0.566,0.273-0.809,0.45
					c-0.439,0.324-0.911,0.516-1.408,0.76c-0.414,0.2-0.816,0.454-1.201,0.711c-0.121,0.078-0.256,0.173-0.412,0.238
					c-0.739,0.319-0.815,0.416-1.224,0.584c-0.177,0.072-0.273,0.115-0.417,0.186c-0.028,0.012-0.049,0.024-0.08,0.036
					c-0.189,0.093-0.067,0.03-0.246,0.116c-0.17,0.072-0.318,0.136-0.459,0.213c-0.09,0.045-0.154,0.075-0.229,0.115
					c0,0-0.15,0.08-0.229,0.189l-0.267,0.266c0,0-0.192,0.205,0.049,0.327l0.067,0.055c0,0,0.213,0.081,0.263,0.091l0.224,0.018
					c0,0,0.227-0.016,0.309-0.063c0.321-0.186,0.577-0.343,0.864-0.493c0.209-0.107,0.435-0.212,0.718-0.317
					c0.397-0.15,0.823-0.289,1.197-0.468c0.66-0.313,1.325-0.696,1.988-0.932c0.389-0.137,0.847-0.304,1.226-0.53
					c0.322-0.193,0.713-0.334,1.065-0.468c0.193-0.076,0.268-0.106,0.409-0.238c0.121-0.113,0.24-0.231,0.327-0.377
					C160.911,33.046,160.872,32.676,160.791,32.478z"/>
				<path fill="#717271" d="M156.074,41.122c-0.563-0.268-1.299-0.452-1.861-0.697c-0.63-0.271-1.336-0.539-2.042-0.711
					c-0.181-0.044-0.356-0.085-0.536-0.113c-0.92-0.155-1.92-0.59-2.902-0.308c-0.384,0.112-0.854,0.356-1.26,0.37
					c-0.321,0.011-0.629-0.045-0.891-0.137c-0.319-0.109-0.689-0.161-0.977-0.312c-0.208-0.106-0.445-0.267-0.627-0.417
					c-0.368-0.313-0.473-0.867-0.498-1.313c-0.034-0.479,0.095-0.908,0.076-1.405c-0.005-0.271,0.058-0.555,0.079-0.789
					c0.021-0.22,0.03-0.538,0.058-0.764c0.057-0.555,0.159-1.082,0.291-1.616c0.058-0.234,0.094-0.458,0.152-0.695
					c0.055-0.218,0.121-0.488,0.175-0.739c0.071-0.329,0.103-0.613,0.157-0.934c0.042-0.113,0.074-0.287,0.085-0.323
					c0.029-0.304,0.075-0.525,0.173-0.926c0.072-0.301,0.164-0.611,0.279-0.908c0.051-0.134,0.107-0.267,0.166-0.388
					c0.261-0.528,0.432-1.165,0.719-1.718c0,0,0.174-0.28,0.208-0.366c0.041-0.076,0.101-0.186,0.101-0.186s0.108-0.157,0.226-0.339
					c0.161-0.262,0.134-0.165,0.231-0.343c0.045-0.043,0.081-0.098,0.102-0.156c0.049-0.064,0.09-0.123,0.105-0.214
					c0.03-0.181,0.01-0.397-0.09-0.549c-0.115-0.189-0.29-0.454-0.556-0.468c-0.236-0.01-0.51,0.137-0.69,0.259
					c-0.111,0.071-0.191,0.158-0.263,0.259c-0.279,0.287-0.49,0.73-0.591,1.053c-0.143,0.476-0.334,0.939-0.442,1.426
					c-0.124,0.504-0.345,0.808-0.49,1.291c-0.071,0.231-0.196,0.543-0.24,0.776c-0.034,0.199-0.082,0.612-0.077,0.789
					c-0.057,0.308-0.189,0.999-0.226,1.229c-0.1,0.605-0.155,1.166-0.347,1.758c-0.29,0.939-0.642,1.988-0.604,3.006
					c0.038,0.955-0.047,2.077,0.241,2.976c0.063,0.192,0.144,0.364,0.258,0.549c0.039,0.075,0.089,0.148,0.147,0.222
					c0.093,0.138,0.147,0.205,0.266,0.318c0.085,0.086,0.157,0.145,0.233,0.229c0.141,0.159,0.376,0.271,0.568,0.389
					c0.215,0.134,0.313,0.252,0.564,0.344c0.204,0.078,0.389,0.146,0.591,0.179c0.228,0.035,0.52,0.028,0.743,0
					c0.313-0.043,0.656-0.124,0.978-0.104c0.244,0.01,0.465,0.024,0.73,0.006c0.54-0.039,1.059-0.305,1.592-0.252
					c0.603,0.058,1.102,0.343,1.711,0.559c0.427,0.152,0.752,0.224,1.015,0.388c0.261,0.164,0.514,0.337,0.753,0.496
					c0.454,0.303,0.925,0.599,1.464,0.842c0.302,0.135,0.504,0.287,0.714,0.39c0.37,0.182,0.855,0.302,1.255,0.438
					c0.234,0.076,0.53,0.222,0.729,0.076c0.164-0.111,0.237-0.35,0.229-0.514C158.234,41.926,156.938,41.541,156.074,41.122z"/>
			</g>
			<path fill="#D13239" d="M131.574,78l-0.326-0.009c-0.514,0.016-0.998,0.128-1.358,0.227c-0.279,0.072-0.566,0.092-0.844,0.113
				c-0.202,0.012-0.409,0.028-0.616,0.063l-0.429,0.086c-0.229,0.051-0.464,0.101-0.722,0.124l-0.75,0.049
				c-0.851,0.048-1.725,0.1-2.564,0.34c-0.5,0.143-1,0.354-1.482,0.553c0,0-0.098,0.039-0.158,0.068
				c-0.001,0.013,0.001,0.067,0.001,0.08c0.06,0.021,0.121,0.042,0.183,0.063c0.449,0.155,0.959,0.371,1.434,0.444
				c0.945,0.146,1.741,0.515,2.628,0.783c0.538,0.163,0.441,0.225,0.979,0.347c0.625,0.147,0.49,0.17,1.107,0.305
				c0.393,0.084,0.353,0.232,0.755,0.297c0.229,0.037,0.449,0.074,0.676,0.131c0.116,0.028,0.241,0.095,0.323,0.112
				c0.337,0.08,0.424-0.221,0.424-0.221c-0.011-0.057,0.082-0.138,0.109-0.194c0.063-0.125,0.163-0.376,0.197-0.568
				c0.051-0.169,0.206-0.409,0.241-0.588c0.212-1.067,0.704-1.648,0.903-2.266c0.016-0.025,0.072-0.354,0.114-0.423
				c-0.027,0.007-0.237,0.066-0.239,0.066C131.973,78.022,131.771,78.013,131.574,78z"/>
			<path fill="#F38B00" d="M128.914,10.128c0.535-0.104,1.035,0.002,1.582,0.141l1.163,0.44c0.489,0.137,0.813,0.229,1.159,0.525
				l0.662,0.538c0.434,0.347,0.876,0.708,1.274,1.128c0.172,0.188,0.278,0.398,0.384,0.625l0.164,0.326
				c0.393,0.69,0.486,1.795,0.488,1.804c0.08,0.507,0.006,0.723-0.146,1.157l-0.199,0.583c-0.136,0.417-0.262,0.809-0.488,1.194
				c-0.305,0.52-0.795,1.004-1.137,1.324c-0.225,0.217-0.521,0.355-0.818,0.494l-0.607,0.321l-0.244,0.173l-0.5,0.311
				c-0.022,0.008-0.047,0.012-0.068,0.021l0.656,0.041l0.338,0.052c0.268,0.049,0.554,0.098,0.852,0.065
				c0.303-0.033,0.569-0.152,0.838-0.257l0.715-0.23l0.871-0.177c0.689-0.209,1.129-0.51,1.432-0.981l0.201-0.307
				c0.351-0.526,0.682-1.028,0.812-1.657l0.258-1.232l0.026-0.896v-0.818c0.016-0.433,0.029-0.841-0.077-1.285l-0.052-0.227
				c-0.151-0.641-0.32-1.372-0.693-1.896c-0.479-0.66-0.984-1.24-1.521-1.744c-0.479-0.221-0.971-0.404-1.452-0.553
				c-4.305-0.575-6.887,0.489-8.22,2.381C127.235,10.809,128.091,10.283,128.914,10.128z"/>
			<path fill="#F38B00" d="M139.999,14.57l0.065,0.365l0.052,0.303c0.001,0.002-0.033,0.835-0.036,0.866
				c-0.061,0.365-0.256,0.742-0.436,1.102l-0.24,0.478c-0.14,0.331-0.391,0.613-0.628,0.886l-0.38,0.459l-0.482,0.464l-0.246,0.21
				l-0.328,0.334l-0.487,0.461l-0.285,0.171l-0.489,0.327c-0.361,0.326-0.668,0.433-1.135,0.602l-0.12,0.042
				c-1.012,0.363-1.934,0.567-2.897,0.648c-1.21,0.102-2.563-0.008-4.248-0.345c-0.181-0.035-0.352-0.096-0.521-0.164
				c0.867,1.417,2.126,2.479,4.097,2.919c5.786,0.34,9.694-4.41,9.841-8.905c-0.149-1.361-0.65-2.5-1.372-3.441
				c0.138,0.356,0.234,0.719,0.251,1.055L139.999,14.57z"/>
			<path fill="#F38B00" d="M131.736,19.774c0.727-0.305,1.482-0.622,1.984-1.28l0.355-0.396c0.245-0.258,0.501-0.525,0.615-0.828
				c0.09-0.225,0.039-0.559,0-0.828l-0.024-0.215c-0.063-0.865-0.237-1.635-0.507-2.295c-0.22-0.536-0.488-0.863-0.842-1.275
				c-0.002-0.001-0.634-0.722-0.634-0.722c-0.02-0.023-0.108-0.101-0.108-0.101c-0.459-0.38-1.022-0.852-1.623-0.828l-1.219,0.104
				c-0.547,0.082-1.019,0.458-1.478,0.824l-0.422,0.329c-0.421,0.3-0.823,0.71-1.024,1.045l-0.529,0.887
				c-0.404,0.59-0.516,1.351-0.59,2.024c-0.078,0.706,0.105,1.38,0.497,1.849l0.229,0.301c0.214,0.286,0.459,0.611,0.744,0.795
				l0.681,0.281l0.854,0.495c0.98,0.516,1.89,0.322,2.961-0.132L131.736,19.774z"/>
			<path fill="#717271" d="M129.671,6.133l-1.417,0.442l-0.909,0.448c-0.475,0.234-1.009,0.526-1.411,0.995l-0.429,0.72
				c0,0-0.394,0.548-0.427,0.584l-0.221,0.426l-0.302,0.309c-0.586,0.771-0.885,1.63-1.153,2.683l-0.199,0.971l-0.013,0.895
				c-0.078,0.696-0.078,1.219,0.002,1.699l0.073,0.501l0.145,0.848l0.443,1.244c0.148,0.397,0.258,0.68,0.573,0.971l0.289,0.367
				c0.138,0.198,0.27,0.389,0.488,0.487l0.915,0.504c0.333,0.204,0.677,0.408,1.037,0.552c0.17,0.068,0.341,0.129,0.521,0.164
				c1.686,0.337,3.038,0.446,4.248,0.345c0.964-0.081,1.886-0.285,2.897-0.648l0.12-0.042c0.467-0.169,0.773-0.275,1.135-0.602
				l0.489-0.327l0.285-0.171l0.487-0.461l0.328-0.334l0.246-0.21l0.482-0.464l0.38-0.459c0.237-0.272,0.488-0.555,0.628-0.886
				l0.24-0.478c0.18-0.359,0.375-0.736,0.436-1.102c0.003-0.031,0.037-0.864,0.036-0.866l-0.052-0.303l-0.065-0.365l-0.026-1.165
				c-0.017-0.336-0.113-0.698-0.251-1.055c-0.153-0.408-0.593-1.318-0.593-1.318c-0.172-0.35-0.423-0.67-0.66-0.984l-0.556-0.738
				c-0.464-0.635-0.947-1.29-1.499-1.827c-0.256-0.246-0.65-0.356-1.004-0.449l-1.771-0.567c-0.712-0.245-1.646-0.517-2.484-0.457
				L129.671,6.133z M128.696,19.94l-0.854-0.495l-0.681-0.281c-0.285-0.184-0.53-0.509-0.744-0.795l-0.229-0.301
				c-0.392-0.469-0.575-1.143-0.497-1.849c0.074-0.674,0.186-1.435,0.59-2.024l0.529-0.887c0.201-0.335,0.604-0.745,1.024-1.045
				l0.422-0.329c0.459-0.366,0.931-0.742,1.478-0.824l1.219-0.104c0.601-0.023,1.164,0.448,1.623,0.828c0,0,0.089,0.077,0.108,0.101
				c0,0,0.632,0.721,0.634,0.722c0.354,0.412,0.622,0.739,0.842,1.275c0.27,0.66,0.444,1.43,0.507,2.295l0.024,0.215
				c0.039,0.27,0.09,0.604,0,0.828c-0.114,0.303-0.37,0.57-0.615,0.828l-0.355,0.396c-0.502,0.658-1.258,0.976-1.984,1.28
				l-0.079,0.034C130.586,20.262,129.677,20.456,128.696,19.94z M138.58,14.837v0.818l-0.026,0.896l-0.258,1.232
				c-0.13,0.629-0.461,1.131-0.812,1.657l-0.201,0.307c-0.303,0.472-0.742,0.772-1.432,0.981l-0.871,0.177l-0.715,0.23
				c-0.269,0.104-0.535,0.224-0.838,0.257c-0.298,0.032-0.584-0.017-0.852-0.065l-0.338-0.052l-0.656-0.041
				c0.021-0.01,0.046-0.014,0.068-0.021l0.5-0.311l0.244-0.173l0.607-0.321c0.298-0.139,0.594-0.277,0.818-0.494
				c0.342-0.32,0.832-0.805,1.137-1.324c0.227-0.386,0.353-0.777,0.488-1.194l0.199-0.583c0.152-0.435,0.227-0.65,0.146-1.157
				c-0.002-0.009-0.096-1.113-0.488-1.804l-0.164-0.326c-0.105-0.227-0.212-0.438-0.384-0.625c-0.398-0.42-0.841-0.781-1.274-1.128
				l-0.662-0.538c-0.346-0.297-0.67-0.389-1.159-0.525l-1.163-0.44c-0.547-0.139-1.047-0.244-1.582-0.141
				c-0.823,0.154-1.679,0.681-2.349,1.386c-0.361,0.382-0.67,0.809-0.885,1.268c-0.398,0.85-0.813,1.853-0.687,2.896l0.029,0.286
				c0.035,0.398,0.068,0.775,0.25,1.139c0.129,0.249,0.185,0.551,0.233,0.815c0.084,0.495,0.286,0.956,0.538,1.383l-0.406-0.372
				l-0.691-0.645c-0.34-0.345-0.473-0.692-0.665-1.189l-0.388-0.685l-0.106-0.155c-0.143-0.214-0.141-0.55-0.14-0.849l0.005-0.937
				c0.095-0.604,0.345-1.158,0.587-1.695l0.216-0.477c0.166-0.394,0.364-0.654,0.595-0.949l0.73-0.875l0.26-0.404l0.312-0.48
				c0.2-0.226,0.489-0.435,0.774-0.64l0.323-0.24L128.471,8c0.648-0.352,1.294-0.672,2.095-0.709c0,0,1.138,0.005,1.148,0.005
				c0.059,0.011,1.432,0.292,1.976,0.565l0.521,0.321l0.339,0.222c0.599,0.355,1.16,0.78,1.688,1.281
				c0.536,0.504,1.042,1.084,1.521,1.744c0.373,0.523,0.542,1.255,0.693,1.896l0.052,0.227
				C138.609,13.997,138.596,14.405,138.58,14.837z"/>
			<path fill="#CC007B" d="M121.461,41.629c0.256-0.155,0.438-0.23,0.656-0.436c0.44-0.4,0.926-0.832,1.366-1.23
				c0.283-0.263,0.5-0.538,0.762-0.807c0.325-0.334,0.692-0.668,1.002-1.035c0.349-0.422,0.519-1.021,0.625-1.548
				c0.071-0.354,0.166-0.967-0.042-1.285c-0.154-0.243-1.067-0.449-1.146-0.076c-0.631-0.019-1.313,0.294-1.826,0.629
				c-0.321,0.206-0.549,0.488-0.813,0.776c-0.121,0.131-0.247,0.26-0.35,0.405c-0.077,0.115-0.212,0.214-0.278,0.322
				c-0.059,0.102-0.059,0.242-0.132,0.348c-0.06,0.093-0.137,0.151-0.183,0.246c-0.107,0.22-0.158,0.378-0.305,0.587
				c-0.235,0.339-0.58,0.541-0.861,0.836c-0.142,0.146-0.246,0.337-0.351,0.513c-0.197,0.337-0.437,0.603-0.651,0.916
				c-0.094,0.126-0.078,0.237-0.117,0.367c-0.172,0.497-0.434,0.799-0.696,1.238c-0.014,0.079-0.183,0.339-0.185,0.44
				c-0.009,0.121,0.262,0.482,0.313,0.544h0.005l0.533-0.176l0.937-0.351l1.344-0.825l0.166-0.089
				C121.206,41.917,121.199,41.857,121.461,41.629z"/>
			<path fill="#AAAD00" d="M116.138,41.511c-0.062-0.066-0.143-0.094-0.208-0.155c-0.146-0.133-0.166-0.219-0.249-0.414
				c-0.169-0.405-0.419-0.651-0.718-0.957c-0.193-0.195-0.328-0.453-0.512-0.659c-0.298-0.331-0.791-0.483-1.162-0.729
				c-0.145-0.098-0.207-0.195-0.337-0.312c-0.299-0.271-0.739-0.449-1.079-0.654c-0.339-0.204-0.672-0.492-1.059-0.588
				c-0.272-0.071-0.574-0.036-0.858-0.089c-0.469-0.092-0.927-0.252-1.389-0.33c-0.567-0.096-1.134-0.204-1.702-0.253
				c-0.538-0.043-1.1-0.222-1.652-0.21c-0.267,0.003-0.611-0.035-0.831,0.119c-0.209,0.149-0.31,0.578-0.345,0.824
				c-0.099,0.662-0.068,1.511,0.122,2.123c0.048,0.161,0.08,0.262,0.167,0.388c0.213,0.322,0.387,0.731,0.631,1.021
				c0.252,0.3,0.49,0.59,0.707,0.932c0.23,0.361,0.618,0.791,0.837,0.946c0.238,0.165,0.724,0.289,0.965,0.471
				c0.097,0.076,0.12,0.035,0.221,0.123c0.207,0.197,0.49,0.317,0.747,0.42c0.802,0.323,1.605,0.653,2.401,1.018
				c0.8,0.363,1.638,0.481,2.481,0.275c0.542-0.134,1.08-0.228,1.603-0.368c0.417-0.111,0.795-0.36,1.159-0.611
				c0.238-0.163,0.507-0.403,0.646-0.692c0.029-0.069,0.139-0.271,0.139-0.361l-0.025-0.023
				C116.587,42.375,116.459,41.853,116.138,41.511z"/>
			<path fill="#4D525A" d="M114.293,49.108c-1.051,0-1.732,0.82-1.755,2.096v9.586c0,1.415-0.272,2.295-0.846,2.685l-0.682,0.486
				c-0.577,0.397-0.847,0.902-0.847,1.555c0,1.104,0.847,1.893,2.055,1.893c1.572,0,3.172-1.464,3.627-3.306
				c0.18-0.648,0.18-0.882,0.18-2.459V51.204C116.025,49.958,115.339,49.108,114.293,49.108z"/>
			<path fill="#4D525A" d="M121.068,49.108c-1.023,0-1.705,0.82-1.735,2.096v9.67c0,1.255,0.712,2.092,1.764,2.092
				c1.022,0,1.708-0.815,1.734-2.092v-9.67C122.831,49.958,122.119,49.108,121.068,49.108z"/>
			<path fill="#4D525A" d="M87.578,49.108c-3.678,0-6.564,3.11-6.564,7.099v4.619c0,1.272,0.729,2.141,1.806,2.141
				c1.056,0,1.746-0.835,1.777-2.141V56.1c0.021-1.836,1.287-3.232,2.981-3.232c1.612,0,2.903,1.39,2.929,3.145v4.813
				c0,1.272,0.715,2.141,1.792,2.141c1.052,0,1.745-0.835,1.776-2.141V56.12C94.069,52.218,91.178,49.108,87.578,49.108z"/>
			<path fill="#4D525A" d="M132.289,49.108c-3.683,0-6.566,3.11-6.566,7.099v4.619c0,1.272,0.73,2.141,1.807,2.141
				c1.059,0,1.748-0.835,1.775-2.141V56.1c0.022-1.836,1.29-3.232,2.984-3.232c1.61,0,2.899,1.39,2.93,3.145v4.813
				c0,1.272,0.717,2.141,1.787,2.141c1.053,0,1.746-0.835,1.771-2.141V56.12C138.776,52.218,135.884,49.108,132.289,49.108z"/>
			<path fill="#4D525A" d="M48.307,49.108c-1.045,0-1.735,0.82-1.763,2.091v5.573c0,1.362-0.912,2.435-2.121,2.435
				c-0.82,0-1.603-0.533-1.925-1.301c-0.176-0.48-0.229-0.819-0.229-1.949v-4.758c0-1.242-0.702-2.091-1.727-2.091
				c-0.006,0-0.006,0-0.013,0c-0.008,0-0.008,0-0.026,0c-1.024,0-1.707,0.82-1.73,2.091v5.573c0,1.362-0.914,2.435-2.126,2.435
				c-0.82,0-1.604-0.533-1.925-1.301c-0.178-0.48-0.23-0.819-0.23-1.949v-4.758c0-1.242-0.709-2.091-1.762-2.091
				c-1.023,0-1.703,0.82-1.734,2.091v5.094c0,1.498,0.264,2.797,0.765,3.681c1.052,1.837,2.962,2.993,4.911,2.993
				c1.434,0,2.835-0.619,3.872-1.7c1.066,1.081,2.484,1.7,3.901,1.7c1.684,0,3.313-0.835,4.359-2.263
				c0.872-1.189,1.239-2.46,1.239-4.298v-5.207C50.044,49.957,49.334,49.108,48.307,49.108z"/>
			<path fill="#4D525A" d="M66.593,58c0.776,2.938,3.262,5.049,6.231,5.049c3.672,0,6.57-3.099,6.57-7.092
				c0-3.735-2.971-6.85-6.542-6.85c-2.99,0-5.526,2.2-6.28,5.131h-2.18c-0.751-2.903-3.313-5.092-6.309-5.092
				c-3.57,0-6.512,3.138-6.512,6.935c0,3.897,2.889,7.012,6.486,7.012c3.029,0,5.521-2.118,6.31-5.093H66.593z M72.853,52.928
				c1.624,0,2.965,1.417,2.965,3.084c0,1.863-1.284,3.281-2.993,3.281c-1.628,0-2.941-1.418-2.941-3.202
				C69.883,54.345,71.225,52.928,72.853,52.928z M58.059,59.334c-1.629,0-2.943-1.421-2.943-3.197c0-1.757,1.342-3.177,2.969-3.177
				c1.631,0,2.967,1.42,2.967,3.09C61.051,57.914,59.764,59.334,58.059,59.334z"/>
			<path fill="#4D525A" d="M104.408,63.837v-1.939c2.729-0.774,4.697-3.259,4.697-6.225c0-3.674-2.891-6.565-6.593-6.565
				c-3.472,0-6.358,2.969-6.358,6.544c0,2.98,2.04,5.528,4.76,6.281v1.877c-2.695,0.755-4.723,3.319-4.723,6.311
				c0,3.576,2.915,6.515,6.434,6.515c3.625,0,6.513-2.888,6.513-6.488C109.138,67.115,107.169,64.624,104.408,63.837z
				 M99.702,55.652c0-1.632,1.313-2.973,2.86-2.973c1.735,0,3.051,1.285,3.051,2.994c0,1.627-1.315,2.942-2.975,2.942
				C101.016,58.616,99.702,57.277,99.702,55.652z M102.676,73.087c-1.629,0-2.945-1.333-2.945-2.967
				c0-1.631,1.316-2.965,2.868-2.965c1.733,0,3.05,1.283,3.05,2.991C105.648,71.78,104.332,73.087,102.676,73.087z"/>
			<path fill="#00A1DF" d="M28.854,42.288c-0.373-0.297-0.627-0.498-0.627-0.498c-0.635-0.507-1.186-0.875-1.82-1.385
				c-0.105-0.086-0.309-0.311-0.409-0.393c-0.193-0.154-0.381-0.302-0.566-0.453c-0.185-0.149-0.385-0.261-0.567-0.407
				c-0.138-0.113-0.263-0.261-0.397-0.372c-0.288-0.238-0.576-0.473-0.856-0.702c-0.309-0.255-0.609-0.449-0.898-0.692
				c-0.3-0.254-0.589-0.557-0.86-0.794l-0.231-0.193l-0.09,0.254c-0.134,0.371-0.137,0.794-0.13,1.201l-0.062,0.958
				c-0.37,2.319-1.161,5.165-1.934,7.923c1.732-0.418,2.649-0.878,4.517-1.423c1.079-0.319,1.917-0.811,2.938-1.227
				c1.102-0.455,1.841-0.534,2.889-1.071c-0.165-0.128-0.325-0.241-0.481-0.368C29.127,42.532,28.971,42.385,28.854,42.288z"/>
			<path fill="#717271" d="M20.247,34.997c0.161,0.547,0.26,1.09,0.28,1.143c0.007,0.375,0.016,0.754-0.008,1.125
				c-0.01,0.16,0,0.271-0.02,0.435c-0.012,0.13-0.054,0.308-0.071,0.439c-0.082,0.589-0.202,1.182-0.355,1.779
				c-0.091,0.357-0.191,0.719-0.298,1.083c-0.135,0.459-0.199,0.783-0.3,1.094c-0.081,0.269-0.218,0.584-0.303,0.859
				c-0.167,0.526-0.338,1.063-0.502,1.623c-0.202,0.679-0.284,1.402-0.444,2.121c-0.126,0.555-0.41,1.176-0.511,1.69
				c-0.073,0.367-0.188,0.695-0.229,0.995c-0.022,0.167,0.028,0.317,0,0.479c0.033,0.011,0.207,0.496,0.332,0.54
				c0.212,0.079,0.649-0.305,0.673-0.296c0.021-0.072,0.104-0.17,0.165-0.387c0.042-0.165,0.059-0.424,0.114-0.634
				c0.111-0.415,0.309-0.716,0.417-1.127l0.216-1.226c0.772-2.758,1.563-5.604,1.934-7.923l0.062-0.958
				c-0.007-0.407-0.004-0.83,0.13-1.201l0.09-0.254l0.231,0.193c0.271,0.237,0.561,0.54,0.86,0.794
				c0.289,0.243,0.59,0.438,0.898,0.692c0.28,0.229,0.568,0.464,0.856,0.702c0.135,0.111,0.26,0.259,0.397,0.372
				c0.183,0.146,0.383,0.258,0.567,0.407c0.186,0.151,0.373,0.299,0.566,0.453c0.101,0.082,0.304,0.307,0.409,0.393
				c0.635,0.51,1.186,0.878,1.82,1.385c0,0,0.254,0.201,0.627,0.498c0.117,0.098,0.273,0.244,0.413,0.357
				c0.156,0.127,0.316,0.24,0.481,0.368c0.046,0.035,0.088,0.066,0.137,0.103c0.087,0.07,0.162,0.17,0.252,0.241
				c0.098,0.081,0.211,0.129,0.305,0.208c0.282,0.223,0.563,0.521,0.797,0.712c0.159,0.127,0.292,0.159,0.414,0.257
				c0.228,0.18,0.375,0.298,0.395,0.313c0.046,0.013,0.242,0.017,0.374,0c0.176-0.024,0.28-0.109,0.28-0.109
				c0.124-0.072,0.26-0.38,0.305-0.589c0.021-0.114-0.136-0.278-0.123-0.297c-0.143-0.137-0.245-0.28-0.405-0.428
				c-0.175-0.157-0.458-0.333-0.649-0.5c-0.436-0.376-0.884-0.769-1.391-1.169c-0.179-0.144-0.459-0.293-0.648-0.44
				c-0.462-0.358-0.881-0.71-1.355-1.063c-0.485-0.36-0.961-0.745-1.42-1.081c-0.676-0.487-1.314-0.903-1.859-1.288
				c-0.184-0.129-0.319-0.252-0.496-0.367c-0.287-0.188-0.611-0.358-0.882-0.547c-0.074-0.048-0.114-0.102-0.187-0.149
				c-0.057-0.041-0.143-0.077-0.2-0.118c-0.248-0.182-0.497-0.379-0.745-0.602c-0.109-0.099-0.213-0.17-0.32-0.277
				c-0.143-0.143-0.29-0.328-0.434-0.496l-0.322-0.615l-0.324-0.6c0.17-0.067,0.344-0.139,0.517-0.2
				c0.286-0.104,0.515-0.204,0.884-0.387c0.337-0.164,0.751-0.283,1.09-0.466c0.338-0.182,0.603-0.422,0.939-0.634
				c0.439-0.275,0.876-0.574,1.315-0.904c0.308-0.23,0.653-0.425,1.071-0.79c0.329-0.296,0.721-0.743,1.059-1.08
				c0.372-0.375,0.621-0.717,0.972-1.125c0.104-0.117,0.287-0.264,0.395-0.391c0.687-0.809,1.335-1.683,1.845-2.551
				c0.331-0.572,0.606-1.143,0.79-1.695c0.207-0.625,0.246-1.181,0.189-1.735c-0.021-0.206-0.158-0.474-0.22-0.665
				c-0.451,0.006-0.75,0.027-1.05,0.156c-0.849,0.365-1.257,1.309-1.56,2.205c-0.098,0.283-0.262,0.595-0.368,0.887
				c-0.16,0.439-0.271,0.852-0.541,1.244c-0.153,0.232-0.47,0.478-0.666,0.704c-0.462,0.533-0.891,1.046-1.494,1.555
				c-0.235,0.201-0.421,0.451-0.663,0.646c-0.307,0.244-0.67,0.428-0.973,0.663c-0.474,0.362-0.933,0.712-1.348,1.048
				c-0.626,0.495-1.275,0.84-1.79,1.148c-0.353,0.213-0.683,0.397-1.027,0.578c-0.021-0.116-0.049-0.271-0.045-0.26
				c-0.025-0.174-0.198-0.645-0.377-1.061c-0.075-0.17-0.127-0.349-0.198-0.494c-0.102-0.209-0.205-0.37-0.251-0.49
				c-0.116-0.298-0.352-0.307-0.352-0.307s-0.159,0.025-0.282,0.102c-0.055,0.029-0.076,0.092-0.117,0.131
				c-0.008,0.061,0.033,0.229,0.063,0.379c0.031,0.158,0.05,0.297,0.078,0.424c0.044,0.18,0.054,0.453,0.133,0.687l0.12,0.699
				c0,0,0.206,0.633,0.227,0.688c-0.23,0.104-0.472,0.211-0.744,0.322c-0.212,0.09-0.599,0.204-0.829,0.304
				c-0.359,0.154-0.872,0.406-1.521,0.649c-0.316,0.121-0.726,0.21-1.049,0.34c-0.403,0.161-0.806,0.276-1.153,0.446
				c-0.198,0.092-0.375,0.243-0.538,0.337c-0.245,0.144-0.508,0.269-0.625,0.401c-0.199,0.227-0.124,0.447,0.218,0.611
				c0.224,0.113,0.793-0.07,0.793-0.07c0.429-0.114,0.848-0.229,1.263-0.335c0.429-0.111,0.867-0.181,1.283-0.289
				c0.36-0.094,0.703-0.229,1.058-0.322c0.806-0.22,1.589-0.448,2.361-0.704L20.247,34.997z"/>
			<path fill="#D13239" d="M143.763,76.086c0.475,0.061,0.782,0.197,1.267,0.28c0.244,0.041,0.489,0.159,0.739,0.159
				c0.183,0,0.498,0.04,0.665,0.119h0.012c0.019,0.013,0.028,0.022,0.045,0.032c0.16,0.026,0.32,0.04,0.486,0.074
				c0.414,0.092,0.866,0.279,1.289,0.403c0.308,0.088,0.522,0.142,0.824,0.239c0.539,0.173,0.874,0.146,1.387,0.215
				c0.154,0.021,0.345,0.091,0.496,0.095c0,0,0.343,0.065,0.144-0.225c-0.332-0.364-0.558-0.489-0.854-0.88
				c-0.181-0.236-0.429-0.499-0.597-0.75c-0.338-0.501-0.522-0.771-0.821-1.305c-0.181-0.316-0.058-0.386-0.218-0.715
				c-0.21-0.434-0.537-1.165-0.689-1.622c-0.137-0.415-0.243-0.926-0.345-1.248c-0.159-0.492-0.184-1.248-0.295-1.751
				c-0.075-0.359-0.193-1.699-0.274-2.463c-0.039-0.374-0.012-0.729-0.016-1.096c-0.014-0.018-0.023-0.032-0.039-0.052
				c-0.059-0.065-0.151-0.236-0.479,0.005c-0.126,0.097-0.553,0.534-0.604,0.605c-0.027,0.048-0.314,0.542-0.333,0.599
				c-0.329,0.347-0.602,0.812-0.794,1.129c-0.857,1.44-1.558,2.567-1.985,3.221c-0.706,1.079-1.372,1.978-2.023,3.093
				c-0.236,0.412-0.452,0.798-0.132,1.088c0.263,0.235,0.882,0.371,1.287,0.518c0.277,0.108,0.563,0.198,0.838,0.287
				c0.037-0.028,0.08-0.057,0.126-0.066C143.116,76.016,143.513,76.058,143.763,76.086z"/>
			<path fill="#00A1DF" d="M150.473,59.263c0.612-1.058-0.195-1.867-0.733-2.709c-1.544-0.754-3.294-0.754-4.06,0.838
				c-0.159,0.943-0.619,1.906,0.285,2.653C147.633,60.617,149.138,60.553,150.473,59.263z"/>
			<path fill="#F5C400" d="M124.97,69.427c-0.054,0.953-0.446,1.701-0.823,2.425c-0.248,0.47-0.502,0.959-0.667,1.506l-0.218,0.719
				l-0.27,0.886l-0.088,0.373l-0.096,0.414l-0.139,0.539l-0.081,0.35l-0.106,0.409l-0.149,0.58
				c-0.019,0.081-0.042,0.161-0.072,0.239c0.034,0.007,0.146,0.034,0.279,0.091c0.003,0,0.072-0.015,0.072-0.015
				c0.198-0.027,0.389-0.031,0.579-0.035c0.129-0.055,0.269-0.11,0.443-0.164c0.629-0.183,0.566-0.37,1.105-0.775
				c0.29-0.218,0.93-0.479,1.216-0.686c0.362-0.264,0.99-0.625,1.366-0.84l1.043-0.692c0.076-0.036,0.237-0.099,0.395-0.173
				c0,0,0.335-0.146,0.047-0.62c-0.312-0.405-0.732-0.919-0.891-1.134c-0.439-0.598-0.261-0.465-0.588-0.83
				c-0.205-0.227-0.373-0.699-0.597-0.904c-0.205-0.182-0.793-1.413-1.003-1.588c-0.408-0.327-0.588-0.952-1.002-1.217
				c-0.002,0-0.002,0.005-0.005,0.007c0.192,0.238,0.255,0.574,0.255,0.896C124.977,69.271,124.974,69.35,124.97,69.427z"/>
			<path fill="#AAAD00" d="M120.922,80.951c-0.073-0.2-0.175-0.471-0.231-0.627c-0.435,0.144-0.847,0.29-1.255,0.58l-0.162,0.115
				c-0.425,0.297-0.817,0.581-1.278,0.85l-0.354,0.188c-0.014,0.02-0.373,0.394-0.373,0.394l-0.594,0.662
				c-0.174,0.207-0.145,0.07-0.313,0.284l-0.907,0.748l-0.789,0.563c0,0-0.225,0.263-0.486,0.501
				c-0.187,0.171-0.434,0.341-0.438,0.345c-0.058,0.06-0.078,0.117-0.078,0.162c0,0.056,0.031,0.099,0.047,0.115l0.427,0.288
				c0.219,0.111,0.551,0.223,0.72,0.449l1.397,0.573l0.89,0.523c0,0,0.51,0.34,0.481,0.32c0,0,0.725,0.338,0.729,0.344l0.183,0.121
				c0,0,0.413,0.201,0.47,0.228c0.056,0.046,0.103,0.064,0.141,0.049c0.131-0.054,0.233-0.451,0.263-0.688
				c-0.005-0.396,0.127-0.723,0.25-1.042c0.117-0.29,0.237-0.586,0.253-0.941l0.212-0.695c0.186-0.525,0.444-1.246,0.441-1.718
				l0.11-0.69c0,0,0.231-1.231,0.313-1.616c-0.008-0.052-0.021-0.097-0.028-0.15C120.95,81.1,120.938,81.027,120.922,80.951z"/>
			<path fill="#717271" d="M134.77,77.169c-0.192-0.832-1.975-0.628-2.176-0.601l0,0c-0.174,0.023-0.34,0.057-0.499,0.104
				c-0.431,0.129-0.698,0.12-0.698,0.12c-0.313,0.028-0.639,0.058-0.957,0.106l-0.708,0.095c-0.411,0.048-0.8,0.091-1.212,0.21
				c-0.443,0.132-0.921,0.263-1.41,0.3c-0.279,0.024-0.528,0.015-0.769,0.009c-0.422-0.013-0.815-0.021-1.276,0.124
				c-0.257,0.082-0.51,0.122-0.781,0.161l-0.359,0.06c-0.226,0.041-0.715,0.051-0.732,0.051c-0.19,0.004-0.381,0.008-0.579,0.035
				c0,0-0.069,0.015-0.072,0.015c-0.133-0.057-0.245-0.084-0.279-0.091c0.03-0.078,0.054-0.158,0.072-0.239l0.149-0.58l0.106-0.409
				l0.081-0.35l0.139-0.539l0.096-0.414l0.088-0.373l0.27-0.886l0.218-0.719c0.165-0.547,0.419-1.036,0.667-1.506
				c0.377-0.724,0.77-1.472,0.823-2.425c0.004-0.077,0.007-0.156,0.007-0.239c0-0.322-0.063-0.658-0.255-0.896
				c-0.1-0.12-0.226-0.228-0.421-0.272l-0.188-0.079l-0.169,0.017c-0.235,0.028-0.526,0.058-0.686,0.291
				c-0.102,0.15-0.143,0.327-0.184,0.494l-0.137,0.473l-0.109,0.363l-0.09,0.392c-0.1,0.509-0.309,0.963-0.309,0.963
				c-0.073,0.143-0.144,0.288-0.203,0.459c-0.052,0.153-0.081,0.294-0.107,0.433c-0.034,0.172-0.068,0.342-0.149,0.516
				c-0.147,0.326-0.185,0.625-0.225,0.912c-0.028,0.229-0.058,0.442-0.133,0.674l-0.235,0.809l-0.154,0.545
				c-0.164,0.556-0.371,1.29-0.454,1.925c-0.282-0.18-0.5-0.347-0.657-0.514c0,0-1.129-1.134-1.389-1.479
				c-0.252-0.331-0.558-0.597-0.853-0.854c-0.176-0.15-0.358-0.305-0.522-0.475c-0.286-0.285-0.642-0.635-1.025-1.132
				c0,0-0.556-0.711-0.733-0.971c-0.154-0.223-0.311-0.431-0.505-0.668c-0.153-0.18-0.233-0.231-0.348-0.296l-0.189-0.115
				l-0.217-0.051c0,0-0.246,0.097-0.309,0.197c-0.067,0.1-0.086,0.219-0.086,0.318c0,0.082,0.013,0.151,0.021,0.191
				c0.058,0.255,0.2,0.383,0.33,0.498l0.137,0.131c0.19,0.222,0.315,0.513,0.448,0.82c0.113,0.271,0.233,0.551,0.403,0.781
				c0,0,0.728,1.111,0.95,1.282l0.304,0.333c0.113,0.142,0.214,0.319,0.323,0.51c0.154,0.276,0.313,0.562,0.534,0.764
				c0.121,0.11,0.29,0.334,0.427,0.511c0,0,0.813,1.021,1.029,1.391c0.105,0.182,0.201,0.318,0.299,0.441
				c-0.354,0.117-0.717,0.247-1.082,0.427c0,0-1.392,0.74-1.761,0.895c-0.26,0.111-0.536,0.197-0.804,0.285
				c-0.305,0.094-0.617,0.191-0.903,0.322c-0.306,0.14-0.571,0.32-0.828,0.496l-0.456,0.3c-0.257,0.151-1.289,0.633-1.505,0.755
				l-1.017,0.591c-0.752,0.416-1.296,0.713-1.399,1.499c-0.015,0.099-0.022,0.191-0.022,0.28c0,0.497,0.226,0.806,0.747,1.053
				c0.738,0.353,1.028,0.229,1.801-0.093l0.312-0.186c0.229-0.204,0.455-0.353,0.71-0.505l0.285-0.179c0,0,0.864-0.604,1.082-0.723
				l0.646-0.325c0.26-0.122,0.523-0.25,0.776-0.395c0.294-0.169,0.45-0.299,0.648-0.467l0.187-0.153
				c0.268-0.214,0.568-0.371,0.889-0.533l0.196-0.107l0.354-0.188c0.461-0.269,0.854-0.553,1.278-0.85l0.162-0.115
				c0.408-0.29,0.82-0.437,1.255-0.58c0.057,0.156,0.158,0.427,0.231,0.627c0.016,0.076,0.028,0.149,0.039,0.234
				c0.008,0.054,0.021,0.099,0.028,0.15c0.028,0.146,0.064,0.285,0.103,0.423l0.087,0.317c0.072,0.305,0.195,0.557,0.312,0.802
				c0.139,0.28,0.266,0.544,0.318,0.881c0.141,0.867,0.578,1.755,1.002,2.612c0.382,0.784,0.575,1.245,0.575,1.245
				c0.214,0.517,0.611,1.479,1.063,1.667c0.213,0.087,0.329,0.032,0.392-0.025c0.065-0.063,0.09-0.158,0.09-0.261
				c0-0.11-0.029-0.23-0.067-0.334L124.71,88.3c-0.08-0.182-0.155-0.354-0.217-0.548l-0.243-0.757
				c-0.181-0.541-0.354-1.055-0.465-1.602c-0.031-0.152-0.088-0.313-0.141-0.473c-0.072-0.191-0.141-0.396-0.165-0.578
				c-0.041-0.326-0.134-0.628-0.229-0.92l-0.314-1.194c-0.08-0.34-0.163-0.688-0.272-1.047l-0.051-0.155
				c-0.138-0.442-0.281-0.896-0.287-1.332c0-0.013-0.002-0.067-0.001-0.08c0.061-0.029,0.158-0.068,0.158-0.068
				c0.482-0.199,0.982-0.41,1.482-0.553c0.84-0.24,1.714-0.292,2.564-0.34l0.75-0.049c0.258-0.023,0.492-0.073,0.722-0.124
				l0.429-0.086c0.207-0.035,0.414-0.052,0.616-0.063c0.277-0.021,0.564-0.041,0.844-0.113c0.36-0.099,0.845-0.211,1.358-0.227
				L131.574,78c0.196,0.013,0.398,0.021,0.586-0.018c0.002,0,0.457-0.14,0.627-0.138c0.234,0.008,0.423-0.004,0.643-0.026
				l0.19-0.015c0.354-0.016,0.888-0.043,1.084-0.304C134.777,77.412,134.801,77.293,134.77,77.169z"/>
			<path fill="#717271" d="M153.939,78.417c-0.085-0.216-0.185-0.338-0.387-0.482c-0.098-0.069-0.355-0.286-0.375-0.304
				c-0.329-0.279-0.642-0.58-0.934-0.897c-0.197-0.217-0.409-0.376-0.588-0.608c-0.183-0.23-0.336-0.533-0.5-0.78
				c-0.281-0.42-0.436-0.614-0.671-1.063c-0.109-0.204-0.332-0.669-0.431-0.876c-0.183-0.392-0.352-0.853-0.515-1.252
				c-0.083-0.203-0.087-0.455-0.162-0.664c-0.125-0.344-0.144-0.516-0.266-0.952c-0.085-0.302-0.207-1.055-0.271-1.354
				c-0.103-0.459-0.13-1.55-0.177-1.914c-0.082-0.583-0.117-1.154-0.117-1.697l-0.026-1.061l-0.132-0.786l-0.117-1.375
				c-0.291-0.714-0.654-0.54-0.905,0.022c-0.063,0.134-0.118,0.287-0.163,0.463c-0.031,0.119-0.06,0.24-0.083,0.37
				c-0.052,0.278-0.085,0.534-0.108,0.77c-0.055,0.523-0.004,1.659-0.004,1.675c0.004,0.367-0.023,0.722,0.016,1.096
				c0.081,0.764,0.199,2.104,0.274,2.463c0.111,0.503,0.136,1.259,0.295,1.751c0.102,0.322,0.208,0.833,0.345,1.248
				c0.152,0.457,0.479,1.188,0.689,1.622c0.16,0.329,0.037,0.398,0.218,0.715c0.299,0.534,0.483,0.804,0.821,1.305
				c0.168,0.251,0.416,0.514,0.597,0.75c0.296,0.391,0.521,0.516,0.854,0.88c0.199,0.29-0.144,0.225-0.144,0.225
				c-0.151-0.004-0.342-0.073-0.496-0.095c-0.513-0.068-0.848-0.042-1.387-0.215c-0.302-0.098-0.517-0.151-0.824-0.239
				c-0.423-0.124-0.875-0.312-1.289-0.403c-0.166-0.034-0.326-0.048-0.486-0.074c-0.017-0.01-0.026-0.02-0.045-0.032h-0.012
				c-0.167-0.079-0.482-0.119-0.665-0.119c-0.25,0-0.495-0.118-0.739-0.159c-0.484-0.083-0.792-0.22-1.267-0.28
				c-0.25-0.028-0.646-0.07-0.893-0.011c-0.046,0.01-0.089,0.038-0.126,0.066c-0.149,0.11-0.235,0.329-0.053,0.475
				c0.152,0.127,0.383,0.167,0.58,0.213c0.296,0.074,0.557,0.17,0.844,0.271c0.255,0.088,0.516,0.189,0.78,0.245
				c0.188,0.037,0.242,0.023,0.415,0.082c0.079,0.027,0.183,0.073,0.274,0.104c0.024,0.012,0.44,0.127,0.645,0.203
				c0.146,0.055,0.389,0.207,0.545,0.26c0.422,0.145,0.874,0.286,1.343,0.42c0.341,0.103,0.708,0.2,1.059,0.304
				c0.038,0.013,0.525,0.144,0.72,0.2c0.227,0.06,0.44,0.116,0.67,0.174c0.256,0.064,0.507,0.123,0.772,0.135
				c0.502,0.019,1.03,0.067,1.539,0.043C153.372,79.249,154.176,79.021,153.939,78.417z"/>
			<path fill="#717271" d="M126.335,34.993c-0.316-0.308-0.458-0.391-0.882-0.391c-0.287-0.003-0.416-0.093-0.685-0.06
				c-0.197,0.026-0.737,0.147-0.932,0.196c-0.458,0.117-0.679,0.396-1.104,0.575c-0.408,0.172-0.714,0.515-1.055,0.801
				c-0.396,0.321-0.674,0.808-1.019,1.177c-0.382,0.399-0.531,0.821-0.904,1.164c-0.354,0.32-0.687,0.775-0.932,1.203
				c-0.155,0.281-0.319,0.478-0.507,0.738c-0.113,0.16-0.168,0.35-0.294,0.527c-0.224,0.316-0.341,0.619-0.591,0.889
				c-0.082,0.089-0.437-0.674-0.437-0.674c-0.134-0.224-0.437-0.596-0.571-0.768c-0.119-0.169-0.204-0.363-0.377-0.502
				c-0.613-0.508-1-1.035-1.691-1.471c-0.311-0.193-0.446-0.36-0.998-0.779c0.015-0.018-0.785-0.612-1.093-0.791
				c-0.284-0.165-0.679-0.253-0.917-0.465c-0.145-0.134-0.223-0.233-0.428-0.316c-1.325-0.563-2.359-1.106-3.777-1.319
				c-0.444-0.064-0.887-0.222-1.354-0.197c-0.163,0.009-0.719,0.038-0.867,0.061c-0.224,0.036-0.689,0.188-0.874,0.299
				c-0.509,0.308-0.707,0.801-0.853,1.458c-0.072,0.306-0.026,0.675-0.026,0.992c0,0.209-0.034,0.602,0.011,0.843
				c0.024-0.015,0.043,0.545,0.06,0.533c0,0.181,0.036,0.249,0.089,0.434c0.045,0.182,0.133,0.345,0.175,0.536
				c0.069,0.264,0.236,0.381,0.334,0.638c0.082,0.225,0.165,0.198,0.244,0.421c0.167,0.48,0.513,0.778,0.794,1.182
				c0.205,0.291,0.477,0.539,0.676,0.732c0.137,0.143,0.331,0.33,0.488,0.449c0.161,0.12,0.337,0.176,0.497,0.322
				c0.203,0.188,1.098,0.952,1.383,1.113c0.269,0.153,1.476,0.482,1.728,0.551c0.457,0.123,0.912,0.222,1.396,0.31
				c0.531,0.094,0.952,0.087,1.48,0.145c0.285,0.03,0.583,0,0.883-0.017c0.216-0.01,0.413-0.055,0.621-0.082
				c0.326-0.043,0.594-0.081,0.898-0.221c0.262-0.121,0.509-0.254,0.772-0.387c0.236-0.123,0.502-0.281,0.692-0.445
				c0.151-0.134,0.25-0.313,0.396-0.44c0.166-0.146,0.237-0.175,0.331-0.37c0.351,0.123,0.331,0.562,0.409,0.744
				c0.085,0.193,0.126,0.269,0.136,0.495c0.007,0.172,0.067,0.329,0.076,0.487c0.015,0.359-0.028,0.602-0.088,0.951
				c-0.02,0.098-0.122,0.326-0.061,0.441c0.123,0.239,0.36-0.063,0.43-0.156c0.235-0.344,0.433-0.489,0.474-0.913
				c0.014-0.136,0.134-0.347,0.101-0.498c0.008-0.127-0.012-0.401,0.014-0.553l-0.038-0.274c-0.102-0.425-0.022-0.301-0.137-0.65
				c-0.035-0.106-0.112-0.186-0.186-0.28c-0.051-0.062-0.321-0.423-0.313-0.544c0.002-0.102,0.171-0.361,0.185-0.44
				c0.263-0.439,0.524-0.741,0.696-1.238c0.039-0.13,0.023-0.241,0.117-0.367c0.215-0.313,0.454-0.579,0.651-0.916
				c0.104-0.176,0.209-0.366,0.351-0.513c0.281-0.295,0.626-0.497,0.861-0.836c0.146-0.209,0.197-0.367,0.305-0.587
				c0.046-0.095,0.123-0.153,0.183-0.246c0.073-0.105,0.073-0.246,0.132-0.348c0.066-0.108,0.201-0.207,0.278-0.322
				c0.103-0.146,0.229-0.274,0.35-0.405c0.265-0.288,0.492-0.57,0.813-0.776c0.514-0.335,1.195-0.647,1.826-0.629
				c0.079-0.373,0.992-0.167,1.146,0.076c0.208,0.318,0.113,0.932,0.042,1.285c-0.106,0.526-0.276,1.126-0.625,1.548
				c-0.31,0.367-0.677,0.701-1.002,1.035c-0.262,0.269-0.479,0.544-0.762,0.807c-0.44,0.398-0.926,0.83-1.366,1.23
				c-0.219,0.205-0.4,0.28-0.656,0.436c-0.262,0.228-0.255,0.287-0.229,0.311c0.016,0.012,0.033,0.016,0.033,0.023
				c0.064-0.005,0.366-0.144,0.533-0.254c0.162-0.102,0.494-0.275,0.643-0.394c0.416-0.313,0.833-0.691,1.246-1.003
				c0.199-0.15,0.411-0.367,0.593-0.528c0.217-0.193,0.52-0.353,0.733-0.552c0.363-0.336,0.683-0.658,0.979-1.057
				c0.15-0.204,0.265-0.608,0.452-1.02c0.151-0.32,0.16-0.751,0.181-1.117C126.64,35.646,126.612,35.262,126.335,34.993z
				 M116.724,43.149c-0.139,0.289-0.407,0.529-0.646,0.692c-0.364,0.251-0.742,0.5-1.159,0.611
				c-0.522,0.141-1.061,0.234-1.603,0.368c-0.844,0.206-1.682,0.088-2.481-0.275c-0.796-0.364-1.6-0.694-2.401-1.018
				c-0.257-0.103-0.54-0.223-0.747-0.42c-0.101-0.088-0.124-0.047-0.221-0.123c-0.241-0.182-0.727-0.306-0.965-0.471
				c-0.219-0.155-0.606-0.585-0.837-0.946c-0.217-0.342-0.455-0.632-0.707-0.932c-0.244-0.29-0.418-0.699-0.631-1.021
				c-0.087-0.126-0.119-0.227-0.167-0.388c-0.19-0.612-0.221-1.461-0.122-2.123c0.035-0.246,0.136-0.675,0.345-0.824
				c0.22-0.154,0.564-0.116,0.831-0.119c0.553-0.012,1.114,0.167,1.652,0.21c0.568,0.049,1.135,0.157,1.702,0.253
				c0.462,0.078,0.92,0.238,1.389,0.33c0.284,0.053,0.586,0.018,0.858,0.089c0.387,0.096,0.72,0.384,1.059,0.588
				c0.34,0.205,0.78,0.383,1.079,0.654c0.13,0.116,0.192,0.214,0.337,0.312c0.371,0.246,0.864,0.398,1.162,0.729
				c0.184,0.206,0.318,0.464,0.512,0.659c0.299,0.306,0.549,0.552,0.718,0.957c0.083,0.195,0.104,0.281,0.249,0.414
				c0.065,0.062,0.146,0.089,0.208,0.155c0.321,0.342,0.449,0.864,0.699,1.253l0.025,0.023
				C116.862,42.878,116.753,43.08,116.724,43.149z"/>
		</g>
	</g>
	<g>
		<path fill="#4D525A" d="M62.087,73.649c0,0.434-0.326,0.753-0.75,0.753l0,0c-0.429,0-0.793-0.319-0.793-0.753v-5.917
			c0-0.424,0.347-0.736,0.781-0.736l0,0c0.425,0,0.762,0.313,0.762,0.736V73.649z"/>
		<path fill="#4D525A" d="M55.568,76.3c0,0,4.578,0,4.605,0c0.389,0,0.37,0.369,0.37,0.369v2.22c0,0.432,0.353,0.772,0.788,0.772
			c0.422,0,0.755-0.341,0.755-0.772v-2.87c0-0.604-0.355-0.978-1.044-0.978h-5.475c-0.355,0-0.635,0.31-0.635,0.658
			C54.934,76.05,55.213,76.3,55.568,76.3z"/>
		<path fill="#4D525A" d="M73.886,72.882h-9.44c-0.358,0-0.632,0.297-0.632,0.654c0,0.363,0.273,0.646,0.632,0.646h3.891v0.9H66.5
			c-0.274,0-0.884,0.183-0.884,0.933v2.54c0,0.722,0.591,0.93,0.854,0.93h5.393c0.258,0,0.847-0.214,0.847-0.908v-2.592
			c0-0.72-0.626-0.902-0.88-0.902h-1.83v-0.9h3.887c0.35,0,0.627-0.283,0.627-0.646C74.513,73.179,74.235,72.882,73.886,72.882z
			 M71.073,76.669v1.216c0,0.239-0.248,0.293-0.328,0.293h-3.199c-0.082,0-0.33-0.056-0.33-0.342v-1.15
			c0-0.267,0.218-0.356,0.315-0.356h3.253C70.878,76.33,71.073,76.425,71.073,76.669z"/>
		<path fill="#4D525A" d="M72.718,70.723h-1.207v-1.899h1.019c0.351,0,0.627-0.292,0.627-0.657c0-0.358-0.276-0.651-0.627-0.651
			h-6.732c-0.345,0-0.62,0.293-0.62,0.651c0,0.365,0.275,0.657,0.62,0.657h0.875v1.899h-1.065c-0.341,0-0.631,0.261-0.631,0.619
			c0,0.362,0.29,0.655,0.631,0.655h7.111c0.347,0,0.638-0.293,0.638-0.655C73.355,70.984,73.064,70.723,72.718,70.723z
			 M68.142,68.824h1.896l0.009,1.899h-1.905V68.824z"/>
		<path fill="#4D525A" d="M59.379,72.485c-1.044-0.627-2.394-1.871-2.394-3.39v-0.906l0,0c-0.025-0.457-0.374-0.811-0.811-0.811
			c-0.456,0-0.831,0.354-0.851,0.811l0,0v0.808c0,1.595-1.273,2.874-2.528,3.676l0.006,0.007c-0.216,0.213-0.222,0.613-0.033,0.869
			c0.268,0.398,0.695,0.391,1.026,0.174l0,0c0-0.002,0.009-0.002,0.013-0.012l0,0c0.555-0.355,0.964-0.716,1.383-1.124
			c0.479-0.485,0.892-0.981,0.984-1.244c0.118,0.278,0.402,0.66,0.947,1.217c0.406,0.364,0.803,0.667,1.356,0.991l0,0
			c0.32,0.195,0.723,0.189,1.004-0.189C59.686,73.093,59.638,72.65,59.379,72.485z"/>
		<g>
			<path fill="#4D525A" d="M35.482,72.408c1.745,0,3.146-1.306,3.146-2.857c0-1.551-1.401-2.832-3.146-2.832
				c-1.733,0-3.132,1.281-3.132,2.832C32.351,71.102,33.749,72.408,35.482,72.408z M35.482,68.024c0.906,0,1.596,0.681,1.596,1.526
				c0,0.856-0.71,1.528-1.596,1.528c-0.835,0-1.588-0.672-1.588-1.528C33.895,68.705,34.626,68.024,35.482,68.024z M40.286,72.802
				h-9.552c-0.35,0-0.641,0.285-0.641,0.628c0,0.349,0.291,0.646,0.641,0.646h3.962v0.773c-1.346,0.313-2.263,1.364-2.263,2.587
				c0,1.457,1.403,2.674,3.106,2.674c1.757,0,3.142-1.217,3.142-2.674c0-1.229-0.95-2.317-2.293-2.595v-0.766h3.897
				c0.366,0,0.646-0.297,0.646-0.646C40.933,73.087,40.652,72.802,40.286,72.802z M37.047,77.436c0,0.776-0.679,1.421-1.54,1.421
				c-0.802,0-1.503-0.655-1.503-1.421c0-0.831,0.728-1.438,1.536-1.438C36.414,75.998,37.047,76.62,37.047,77.436z"/>
			<path fill="#4D525A" d="M51.24,75.151c0,0.44-0.316,0.785-0.764,0.785l0,0c-0.439,0-0.788-0.345-0.788-0.785v-7.419
				c0-0.434,0.349-0.744,0.788-0.744l0,0c0.447,0,0.764,0.311,0.764,0.744V75.151z"/>
			<path fill="#4D525A" d="M48.664,72.774L48.664,72.774c-0.764-0.374-1.301-0.677-1.752-1.22c-0.426-0.534-0.762-1.305-0.762-2.098
				v-0.475h1.779c0.355,0,0.648-0.258,0.648-0.613c0-0.354-0.293-0.637-0.648-0.637h-5.117c-0.363,0-0.651,0.283-0.651,0.637
				c0,0.355,0.288,0.613,0.651,0.613h1.683v0.506c0,0.75-0.323,1.418-0.688,1.977c-0.483,0.695-1.075,1.221-1.764,1.629
				c-0.246,0.157-0.32,0.595-0.151,0.865c0.216,0.418,0.646,0.443,0.999,0.26l0.069-0.029c0.763-0.428,0.964-0.665,1.535-1.258
				c0.522-0.509,0.78-1.012,0.89-1.265c0.174,0.293,0.573,0.889,1.049,1.265c0.475,0.418,0.778,0.626,1.447,0.954h-0.002
				l0.059,0.028c0.359,0.139,0.771-0.028,0.916-0.377C48.973,73.278,48.875,72.892,48.664,72.774z"/>
			<path fill="#4D525A" d="M50.852,78.141c0,0-4.48,0-4.504,0c-0.411,0-0.393-0.326-0.393-0.326v-1.781
				c0-0.427-0.338-0.777-0.764-0.777c-0.438,0-0.791,0.351-0.791,0.777v2.479c0,0.599,0.377,0.98,1.081,0.98h5.37
				c0.317,0,0.606-0.3,0.606-0.645C51.458,78.454,51.169,78.141,50.852,78.141z"/>
		</g>
	</g>
</g>
</svg>
